#!OML:ASF H:\IndianDance\Patient Classification 1\Patient 1\Session 1\dancer.ASF
:FULLY-SPECIFIED
:DEGREES
1497
root 2.00928 14.4828 0.582262 131.818 -94.1853 -124.14
lowerback 5.222 7.49381 0.942125
upperback -8.49473 9.72245 -3.69662
thorax -11.2231 4.3589 -5.87984
lowerneck -8.58864 15.9934 13.5148
upperneck 16.7725 19.7848 -0.140589
head 7.95112 10.2578 -0.0116815
rclavicle -6.21699e-014 -3.57812e-014
rhumerus -23.8409 46.6189 -37.2472
rradius 132.889
rwrist -90.8218
rhand -8.29964 1.38823
rfingers 7.12502
rthumb 17.6205 -27.8333
lclavicle -6.21699e-014 -3.57812e-014
lhumerus 12.3265 -19.6083 9.40206
lradius 36.3483
lwrist 1.91059
lhand 3.95368 14.5731
lfingers 7.12502
lthumb 29.3715 -1037.73
rfemur -23.6387 -24.3023 30.17
rtibia 72.8126
rfoot -5.33595 -9.07504
rtoes -3.83023
lfemur -31.0683 22.4401 -22.3073
ltibia 54.0076
lfoot -22.3781 7.19986
ltoes -5.02983
1498
root 2.00812 14.4905 0.632843 135.138 -94.2306 -127.612
lowerback 5.28218 7.46077 1.37796
upperback -8.47127 9.73517 -3.65184
thorax -11.1651 4.3351 -6.06968
lowerneck -8.47204 16.0722 13.5957
upperneck 16.9749 19.8905 -0.0861245
head 8.00986 10.3205 0.0110412
rclavicle -1.4233e-013 -1.43125e-014
rhumerus -23.595 45.1383 -36.4096
rradius 133.274
rwrist -96.4843
rhand -9.43195 0.876548
rfingers 7.12502
rthumb 16.5306 -28.4393
lclavicle -1.4233e-013 -1.43125e-014
lhumerus 12.1998 -19.6896 9.41246
lradius 36.4802
lwrist 2.36031
lhand 4.34834 14.5948
lfingers 7.12502
lthumb 29.7482 -1037.77
rfemur -23.5271 -24.7051 29.7541
rtibia 73.9576
rfoot -6.39699 -7.93823
rtoes -5.98306
lfemur -30.9146 22.267 -22.3597
ltibia 54.0036
lfoot -22.4021 7.28131
ltoes -4.95723
1499
root 2.00759 14.5023 0.680525 138.571 -94.3115 -131.209
lowerback 5.37344 7.42053 1.78128
upperback -8.44017 9.73697 -3.59277
thorax -11.127 4.30862 -6.23066
lowerneck -8.37471 16.1344 13.6659
upperneck 17.1825 19.9764 -0.0515661
head 8.07346 10.3713 0.0282143
rclavicle -1.72197e-013 -5.32743e-014
rhumerus -23.4221 43.6252 -35.5413
rradius 133.489
rwrist -101.062
rhand -10.5619 0.623602
rfingers 7.12502
rthumb 15.4425 -28.7795
lclavicle -1.72197e-013 -5.32743e-014
lhumerus 12.0982 -19.7341 9.46959
lradius 36.6187
lwrist 2.92094
lhand 4.74365 14.6098
lfingers 7.12502
lthumb 30.1254 -1037.83
rfemur -23.5007 -25.2757 29.2665
rtibia 75.5047
rfoot -7.39722 -6.76065
rtoes -7.42504
lfemur -30.7116 22.033 -22.4082
ltibia 53.9094
lfoot -22.3538 7.41118
ltoes -4.90325
1500
root 2.00778 14.5176 0.724752 141.831 -94.4109 -134.645
lowerback 5.49078 7.37549 2.13722
upperback -8.40126 9.73004 -3.51434
thorax -11.1086 4.28189 -6.34886
lowerneck -8.28647 16.1845 13.7367
upperneck 17.3892 20.0506 -0.0484464
head 8.14111 10.4139 0.0350366
rclavicle 9.74045e-015 -3.3197e-014
rhumerus -23.3227 42.1642 -34.659
rradius 133.526
rwrist -104.364
rhand -11.6089 0.533395
rfingers 7.12502
rthumb 14.4339 -28.9447
lclavicle 9.74045e-015 -3.3197e-014
lhumerus 11.9942 -19.7453 9.57032
lradius 36.783
lwrist 3.67172
lhand 5.15386 14.6431
lfingers 7.12502
lthumb 30.5167 -1037.86
rfemur -23.5396 -25.877 28.7108
rtibia 77.2459
rfoot -8.28954 -5.787
rtoes -8.42859
lfemur -30.4586 21.7542 -22.4438
ltibia 53.7351
lfoot -22.254 7.55593
ltoes -4.76379
1501
root 2.00855 14.5368 0.765208 144.725 -94.5051 -137.728
lowerback 5.63842 7.33548 2.4426
upperback -8.35234 9.72773 -3.41596
thorax -11.109 4.26172 -6.4238
lowerneck -8.22465 16.2215 13.796
upperneck 17.5949 20.1105 -0.0737423
head 8.21386 10.4463 0.0348395
rclavicle 2.9445e-014 -1.23246e-014
rhumerus -23.3004 40.8008 -33.7582
rradius 133.395
rwrist -106.41
rhand -12.5406 0.526453
rfingers 7.12502
rthumb 13.536 -29.0136
lclavicle 2.9445e-014 -1.23246e-014
lhumerus 11.8885 -19.7366 9.70663
lradius 36.9797
lwrist 4.63219
lhand 5.57349 14.6764
lfingers 7.12502
lthumb 30.9168 -1037.91
rfemur -23.6194 -26.459 28.1027
rtibia 79.081
rfoot -9.2521 -5.19723
rtoes -8.72965
lfemur -30.1458 21.4524 -22.4556
ltibia 53.4837
lfoot -22.1222 7.69101
ltoes -4.3992
1502
root 2.01002 14.5593 0.801952 147.207 -94.567 -140.411
lowerback 5.81066 7.30862 2.70204
upperback -8.29255 9.74155 -3.29749
thorax -11.1216 4.25368 -6.45791
lowerneck -8.18633 16.2466 13.8414
upperneck 17.7878 20.1577 -0.123168
head 8.28661 10.4692 0.0284552
rclavicle 2.2736e-014 5.96354e-016
rhumerus -23.3483 39.5462 -32.8264
rradius 133.108
rwrist -107.39
rhand -13.3231 0.516436
rfingers 7.12502
rthumb 12.7817 -29.0723
lclavicle 2.2736e-014 5.96354e-016
lhumerus 11.786 -19.7383 9.85357
lradius 37.2114
lwrist 5.75793
lhand 5.99546 14.7394
lfingers 7.12502
lthumb 31.319 -1037.92
rfemur -23.7174 -27.0007 27.455
rtibia 80.9749
rfoot -10.0547 -5.03616
rtoes -8.54242
lfemur -29.7779 21.1587 -22.4322
ltibia 53.1617
lfoot -21.9726 7.79912
ltoes -3.79248
1503
root 2.01196 14.5851 0.835041 149.259 -94.5796 -142.673
lowerback 6.00483 7.29523 2.91879
upperback -8.22409 9.77185 -3.16127
thorax -11.146 4.25747 -6.45519
lowerneck -8.15462 16.2645 13.8901
upperneck 17.9578 20.1995 -0.202424
head 8.35601 10.4869 0.0113204
rclavicle -9.69075e-016 -6.16232e-015
rhumerus -23.4429 38.41 -31.8487
rradius 132.68
rwrist -107.622
rhand -13.8973 0.444334
rfingers 7.12502
rthumb 12.2281 -29.1782
lclavicle -9.69075e-016 -6.16232e-015
lhumerus 11.6709 -19.7868 9.97158
lradius 37.4847
lwrist 6.97011
lhand 6.41442 14.8224
lfingers 7.12502
lthumb 31.7181 -1037.92
rfemur -23.8562 -27.4775 26.7733
rtibia 82.9246
rfoot -10.7224 -5.27482
rtoes -8.29008
lfemur -29.3524 20.8932 -22.3694
ltibia 52.7758
lfoot -21.8204 7.87229
ltoes -2.95957
1504
root 2.01444 14.6137 0.864737 150.944 -94.5362 -144.573
lowerback 6.21465 7.29643 3.10108
upperback -8.15131 9.82013 -3.01381
thorax -11.1806 4.27272 -6.42664
lowerneck -8.13686 16.2761 13.9353
upperneck 18.112 20.2327 -0.29021
head 8.42251 10.499 -0.00888691
rclavicle -1.4387e-014 -7.7526e-015
rhumerus -23.5742 37.3839 -30.8186
rradius 132.135
rwrist -107.457
rhand -14.2987 0.312943
rfingers 7.12502
rthumb 11.8411 -29.3323
lclavicle -1.4387e-014 -7.7526e-015
lhumerus 11.5609 -19.8885 10.047
lradius 37.7737
lwrist 8.14604
lhand 6.81033 14.924
lfingers 7.12502
lthumb 32.0951 -1037.89
rfemur -24.0636 -27.8728 26.0706
rtibia 84.9151
rfoot -11.3775 -5.84623
rtoes -7.94639
lfemur -28.8895 20.6782 -22.2762
ltibia 52.3372
lfoot -21.6393 7.97439
ltoes -2.26862
1505
root 2.01769 14.6423 0.891726 152.251 -94.4314 -146.096
lowerback 6.43667 7.31264 3.25445
upperback -8.07703 9.88668 -2.86153
thorax -11.2245 4.29873 -6.38193
lowerneck -8.108 16.285 13.987
upperneck 18.233 20.2644 -0.387926
head 8.47756 10.5098 -0.0357442
rclavicle -1.52294e-013 3.77691e-015
rhumerus -23.7373 36.4628 -29.7449
rradius 131.491
rwrist -107.199
rhand -14.5929 0.165037
rfingers 7.12502
rthumb 11.5574 -29.4963
lclavicle -1.52294e-013 3.77691e-015
lhumerus 11.4557 -20.0387 10.0684
lradius 38.0644
lwrist 9.19459
lhand 7.18186 15.0139
lfingers 7.12502
lthumb 32.4488 -1037.87
rfemur -24.335 -28.1819 25.3503
rtibia 86.9243
rfoot -12.0463 -6.62934
rtoes -6.83289
lfemur -28.407 20.5183 -22.1571
ltibia 51.8767
lfoot -21.4419 8.09863
ltoes -1.63991
1506
root 2.02086 14.6731 0.915789 153.178 -94.2797 -147.237
lowerback 6.66629 7.33836 3.37612
upperback -8.00499 9.96266 -2.71139
thorax -11.2795 4.33088 -6.32573
lowerneck -8.06661 16.2925 14.0416
upperneck 18.3311 20.294 -0.480418
head 8.5224 10.5203 -0.06395
rclavicle 3.33089e-014 1.11319e-014
rhumerus -23.9184 35.6455 -28.6407
rradius 130.751
rwrist -107.011
rhand -14.8515 0.0292697
rfingers 7.12502
rthumb 11.308 -29.6459
lclavicle 3.33089e-014 1.11319e-014
lhumerus 11.3529 -20.2065 10.0477
lradius 38.3406
lwrist 10.0507
lhand 7.52063 15.1049
lfingers 7.12502
lthumb 32.7711 -1037.85
rfemur -24.6492 -28.4147 24.6094
rtibia 88.8893
rfoot -12.7671 -7.49571
rtoes -4.88175
lfemur -27.9057 20.4089 -22.0246
ltibia 51.4005
lfoot -21.2403 8.23764
ltoes -1.08846
1507
root 2.02528 14.6991 0.937918 153.729 -94.0943 -147.997
lowerback 6.89663 7.37165 3.4671
upperback -7.93529 10.0445 -2.56942
thorax -11.3407 4.36737 -6.26352
lowerneck -8.02373 16.2978 14.0885
upperneck 18.4182 20.3156 -0.544026
head 8.55872 10.5289 -0.0844598
rclavicle -3.2551e-014 -2.22142e-014
rhumerus -24.1173 34.9317 -27.5234
rradius 129.912
rwrist -106.919
rhand -15.1053 -0.112244
rfingers 7.12502
rthumb 11.0632 -29.8007
lclavicle -3.2551e-014 -2.22142e-014
lhumerus 11.2612 -20.3541 10.004
lradius 38.5831
lwrist 10.6934
lhand 7.82822 15.1671
lfingers 7.12502
lthumb 33.0637 -1037.85
rfemur -25.0365 -28.5717 23.8558
rtibia 90.8019
rfoot -13.5249 -8.36498
rtoes -2.43326
lfemur -27.4293 20.3476 -21.8988
ltibia 50.9468
lfoot -21.016 8.4286
ltoes -0.815727
